<svg id="Layer_1" data-name="Layer 1" xmlns="http://www.w3.org/2000/svg" viewBox="0 0 404.47 154.86"><defs><style>.cls-1{fill:#fff;}</style></defs><title>logo</title><circle class="cls-1" cx="50" cy="50" r="50"/><circle class="cls-1" cx="200.44" cy="50" r="50"/><circle class="cls-1" cx="354.47" cy="50" r="50"/><rect class="cls-1" x="108.41" y="49.69" width="33.63" height="4.42" rx="2.21"/><rect class="cls-1" x="260.64" y="51.91" width="33.63" height="4.42" rx="2.21"/><path class="cls-1" d="M441.3,382l3.11-11.64h9L450.36,382a2.46,2.46,0,0,0-.11.67,1.75,1.75,0,0,0,.39,1.14,1.83,1.83,0,0,0,1.61.78h14.23l-2.43,9.06-14.24,0v0a8.47,8.47,0,0,1-8.95-8.52A12.17,12.17,0,0,1,441.3,382Zm6.57-24.58h25.88l-2.43,9.05H445.44Z" transform="translate(-426.95 -238.74)"/><path class="cls-1" d="M477.76,384.55h15.56l-2.44,9.06H466.27l6.24-23.29h24.61l-2.43,9.05H479.13Zm22.83-27.17-2.43,9.05H473.54l2.44-9.05Z" transform="translate(-426.95 -238.74)"/><path class="cls-1" d="M519.87,357.38h6.47l-2.43,9.05h-6.47a11.3,11.3,0,0,0-7.12,2.66,11.9,11.9,0,0,0-4.35,6.4,9.92,9.92,0,0,0-.34,2.43,6.56,6.56,0,0,0,7,6.63h6.47l-2.44,9.06h-6.47q-7.5,0-11.38-5.31a13.09,13.09,0,0,1-2.57-7.94,18.77,18.77,0,0,1,.7-4.87,24,24,0,0,1,8.72-12.81A22.62,22.62,0,0,1,519.87,357.38Z" transform="translate(-426.95 -238.74)"/><path class="cls-1" d="M534.15,370.32l15.56,0-2.44,9.08H531.72l-3.8,14.24h-9.06l9.7-36.23h9.06Z" transform="translate(-426.95 -238.74)"/><path class="cls-1" d="M612.15,369l-6.6,24.59h-9L603.09,369a2.4,2.4,0,0,0,.11-.67,1.91,1.91,0,0,0-2-1.92H584.36l-7.27,27.18H568l9.7-36.23,25.88,0v0a8.44,8.44,0,0,1,9,8.56A11.56,11.56,0,0,1,612.15,369Zm-20.83,24.59h-9.06l6.24-23.29h9.06Z" transform="translate(-426.95 -238.74)"/><path class="cls-1" d="M646.31,362.68a13.13,13.13,0,0,1,2.56,8,18.78,18.78,0,0,1-.67,4.84,24,24,0,0,1-8.75,12.81,22.61,22.61,0,0,1-14.23,5.31q-7.5,0-11.39-5.31a13.15,13.15,0,0,1-2.56-7.94,18.77,18.77,0,0,1,.7-4.87,24,24,0,0,1,8.72-12.81,22.62,22.62,0,0,1,14.24-5.3Q642.43,357.38,646.31,362.68ZM634.77,381.9a12.05,12.05,0,0,0,4.37-6.41,9.15,9.15,0,0,0,.34-2.41,6.56,6.56,0,0,0-7-6.65,11.3,11.3,0,0,0-7.11,2.66,11.79,11.79,0,0,0-4.35,6.4,9.46,9.46,0,0,0-.34,2.43,6.48,6.48,0,0,0,1.27,4,6.59,6.59,0,0,0,5.69,2.67A11.29,11.29,0,0,0,634.77,381.9Z" transform="translate(-426.95 -238.74)"/><path class="cls-1" d="M647.63,382l6.58-24.58h9L656.69,382a2.42,2.42,0,0,0-.1.67,1.74,1.74,0,0,0,.38,1.14,1.85,1.85,0,0,0,1.61.78h5.17L671,357.38h9.05l-9.7,36.23-14.23,0v0a8.44,8.44,0,0,1-7.3-3.42,8.35,8.35,0,0,1-1.66-5.1A12.17,12.17,0,0,1,647.63,382Z" transform="translate(-426.95 -238.74)"/><path class="cls-1" d="M706.74,369l-6.6,24.59h-9.06l6.6-24.59a2.4,2.4,0,0,0,.11-.67,1.91,1.91,0,0,0-2-1.92h-5.18l-7.27,27.18h-9.06L684,357.38l14.23,0v0a8.46,8.46,0,0,1,9,8.56A12,12,0,0,1,706.74,369Z" transform="translate(-426.95 -238.74)"/><path class="cls-1" d="M705.5,382l3.1-11.64h9.06L714.55,382a2.86,2.86,0,0,0-.1.67,1.75,1.75,0,0,0,.39,1.14,1.83,1.83,0,0,0,1.6.78h14.24l-2.44,9.06-14.23,0v0a8.45,8.45,0,0,1-9-8.52A11.75,11.75,0,0,1,705.5,382Zm6.57-24.58H738l-2.43,9.05H709.64Z" transform="translate(-426.95 -238.74)"/><path class="cls-1" d="M751.59,384.55l.46-27.17h9.06l.65,36.23H729.41l12.42-23.29h9.52l-7.06,14.23Z" transform="translate(-426.95 -238.74)"/><path class="cls-1" d="M772,393.61h-9.06l9.71-36.23h9Z" transform="translate(-426.95 -238.74)"/><path class="cls-1" d="M808.34,369l-6.6,24.59h-9.06l6.6-24.59a2.37,2.37,0,0,0,.1-.67,1.91,1.91,0,0,0-.38-1.17,1.93,1.93,0,0,0-1.63-.75h-5.18l-7.27,27.18h-9.06l9.71-36.23,14.23,0v0a8.46,8.46,0,0,1,9,8.56A12,12,0,0,1,808.34,369Z" transform="translate(-426.95 -238.74)"/></svg>